<mxfile host="app.diagrams.net" modified="2022-09-17T16:29:59.945Z" agent="5.0 (Macintosh; Intel Mac OS X 10_15_7) AppleWebKit/537.36 (KHTML, like Gecko) Chrome/104.0.0.0 Safari/537.36" etag="tpgtU_EV4jEEOptzlFzz" version="20.3.0" type="github">
  <diagram id="C5RBs43oDa-KdzZeNtuy" name="Page-1">
    <mxGraphModel dx="2061" dy="711" grid="1" gridSize="10" guides="1" tooltips="1" connect="1" arrows="1" fold="1" page="1" pageScale="1" pageWidth="827" pageHeight="1169" math="0" shadow="0">
      <root>
        <mxCell id="WIyWlLk6GJQsqaUBKTNV-0" />
        <mxCell id="WIyWlLk6GJQsqaUBKTNV-1" parent="WIyWlLk6GJQsqaUBKTNV-0" />
        <mxCell id="ecf7t1vO1yYwUDiaF_wW-16" value="" style="group" vertex="1" connectable="0" parent="WIyWlLk6GJQsqaUBKTNV-1">
          <mxGeometry x="330" y="10" width="120" height="90" as="geometry" />
        </mxCell>
        <mxCell id="ecf7t1vO1yYwUDiaF_wW-11" value="Web Browser" style="rounded=0;whiteSpace=wrap;html=1;" vertex="1" parent="ecf7t1vO1yYwUDiaF_wW-16">
          <mxGeometry width="120" height="70" as="geometry" />
        </mxCell>
        <mxCell id="ecf7t1vO1yYwUDiaF_wW-13" value="" style="rounded=0;whiteSpace=wrap;html=1;" vertex="1" parent="ecf7t1vO1yYwUDiaF_wW-16">
          <mxGeometry y="80" width="120" height="10" as="geometry" />
        </mxCell>
        <mxCell id="ecf7t1vO1yYwUDiaF_wW-14" value="" style="endArrow=none;html=1;rounded=0;" edge="1" parent="ecf7t1vO1yYwUDiaF_wW-16">
          <mxGeometry width="50" height="50" relative="1" as="geometry">
            <mxPoint x="20" y="80" as="sourcePoint" />
            <mxPoint x="20" y="70" as="targetPoint" />
            <Array as="points" />
          </mxGeometry>
        </mxCell>
        <mxCell id="ecf7t1vO1yYwUDiaF_wW-15" value="" style="endArrow=none;html=1;rounded=0;entryX=0.75;entryY=1;entryDx=0;entryDy=0;" edge="1" parent="ecf7t1vO1yYwUDiaF_wW-16" target="ecf7t1vO1yYwUDiaF_wW-11">
          <mxGeometry width="50" height="50" relative="1" as="geometry">
            <mxPoint x="90" y="80" as="sourcePoint" />
            <mxPoint x="30" y="80" as="targetPoint" />
            <Array as="points" />
          </mxGeometry>
        </mxCell>
        <mxCell id="ecf7t1vO1yYwUDiaF_wW-17" value="" style="group" vertex="1" connectable="0" parent="WIyWlLk6GJQsqaUBKTNV-1">
          <mxGeometry x="720" y="350" width="120" height="90" as="geometry" />
        </mxCell>
        <mxCell id="ecf7t1vO1yYwUDiaF_wW-18" value="Just In Time Inventory System" style="rounded=0;whiteSpace=wrap;html=1;" vertex="1" parent="ecf7t1vO1yYwUDiaF_wW-17">
          <mxGeometry width="120" height="70" as="geometry" />
        </mxCell>
        <mxCell id="ecf7t1vO1yYwUDiaF_wW-19" value="" style="rounded=0;whiteSpace=wrap;html=1;" vertex="1" parent="ecf7t1vO1yYwUDiaF_wW-17">
          <mxGeometry y="80" width="120" height="10" as="geometry" />
        </mxCell>
        <mxCell id="ecf7t1vO1yYwUDiaF_wW-20" value="" style="endArrow=none;html=1;rounded=0;" edge="1" parent="ecf7t1vO1yYwUDiaF_wW-17">
          <mxGeometry width="50" height="50" relative="1" as="geometry">
            <mxPoint x="20" y="80" as="sourcePoint" />
            <mxPoint x="20" y="70" as="targetPoint" />
            <Array as="points" />
          </mxGeometry>
        </mxCell>
        <mxCell id="ecf7t1vO1yYwUDiaF_wW-21" value="" style="endArrow=none;html=1;rounded=0;entryX=0.75;entryY=1;entryDx=0;entryDy=0;" edge="1" parent="ecf7t1vO1yYwUDiaF_wW-17" target="ecf7t1vO1yYwUDiaF_wW-18">
          <mxGeometry width="50" height="50" relative="1" as="geometry">
            <mxPoint x="90" y="80" as="sourcePoint" />
            <mxPoint x="30" y="80" as="targetPoint" />
            <Array as="points" />
          </mxGeometry>
        </mxCell>
        <mxCell id="ecf7t1vO1yYwUDiaF_wW-22" value="" style="endArrow=classic;startArrow=classic;html=1;rounded=0;exitX=0.5;exitY=0.08;exitDx=0;exitDy=0;exitPerimeter=0;" edge="1" parent="WIyWlLk6GJQsqaUBKTNV-1" source="ecf7t1vO1yYwUDiaF_wW-23">
          <mxGeometry width="50" height="50" relative="1" as="geometry">
            <mxPoint x="390" y="140" as="sourcePoint" />
            <mxPoint x="390" y="100" as="targetPoint" />
          </mxGeometry>
        </mxCell>
        <mxCell id="ecf7t1vO1yYwUDiaF_wW-23" value="Internet" style="ellipse;shape=cloud;whiteSpace=wrap;html=1;" vertex="1" parent="WIyWlLk6GJQsqaUBKTNV-1">
          <mxGeometry x="340" y="130" width="100" height="50" as="geometry" />
        </mxCell>
        <mxCell id="ecf7t1vO1yYwUDiaF_wW-28" value="" style="group" vertex="1" connectable="0" parent="WIyWlLk6GJQsqaUBKTNV-1">
          <mxGeometry x="-60" y="110" width="120" height="90" as="geometry" />
        </mxCell>
        <mxCell id="ecf7t1vO1yYwUDiaF_wW-29" value="User Management System" style="rounded=0;whiteSpace=wrap;html=1;" vertex="1" parent="ecf7t1vO1yYwUDiaF_wW-28">
          <mxGeometry width="120" height="70" as="geometry" />
        </mxCell>
        <mxCell id="ecf7t1vO1yYwUDiaF_wW-30" value="" style="rounded=0;whiteSpace=wrap;html=1;" vertex="1" parent="ecf7t1vO1yYwUDiaF_wW-28">
          <mxGeometry y="80" width="120" height="10" as="geometry" />
        </mxCell>
        <mxCell id="ecf7t1vO1yYwUDiaF_wW-31" value="" style="endArrow=none;html=1;rounded=0;" edge="1" parent="ecf7t1vO1yYwUDiaF_wW-28">
          <mxGeometry width="50" height="50" relative="1" as="geometry">
            <mxPoint x="20" y="80" as="sourcePoint" />
            <mxPoint x="20" y="70" as="targetPoint" />
            <Array as="points" />
          </mxGeometry>
        </mxCell>
        <mxCell id="ecf7t1vO1yYwUDiaF_wW-32" value="" style="endArrow=none;html=1;rounded=0;entryX=0.75;entryY=1;entryDx=0;entryDy=0;" edge="1" parent="ecf7t1vO1yYwUDiaF_wW-28" target="ecf7t1vO1yYwUDiaF_wW-29">
          <mxGeometry width="50" height="50" relative="1" as="geometry">
            <mxPoint x="90" y="80" as="sourcePoint" />
            <mxPoint x="30" y="80" as="targetPoint" />
            <Array as="points" />
          </mxGeometry>
        </mxCell>
        <mxCell id="ecf7t1vO1yYwUDiaF_wW-33" value="" style="group" vertex="1" connectable="0" parent="WIyWlLk6GJQsqaUBKTNV-1">
          <mxGeometry x="160" y="10" width="120" height="90" as="geometry" />
        </mxCell>
        <mxCell id="ecf7t1vO1yYwUDiaF_wW-34" value="Android Application" style="rounded=0;whiteSpace=wrap;html=1;" vertex="1" parent="ecf7t1vO1yYwUDiaF_wW-33">
          <mxGeometry width="120" height="70" as="geometry" />
        </mxCell>
        <mxCell id="ecf7t1vO1yYwUDiaF_wW-35" value="" style="rounded=0;whiteSpace=wrap;html=1;" vertex="1" parent="ecf7t1vO1yYwUDiaF_wW-33">
          <mxGeometry y="80" width="120" height="10" as="geometry" />
        </mxCell>
        <mxCell id="ecf7t1vO1yYwUDiaF_wW-36" value="" style="endArrow=none;html=1;rounded=0;" edge="1" parent="ecf7t1vO1yYwUDiaF_wW-33">
          <mxGeometry width="50" height="50" relative="1" as="geometry">
            <mxPoint x="20" y="80" as="sourcePoint" />
            <mxPoint x="20" y="70" as="targetPoint" />
            <Array as="points" />
          </mxGeometry>
        </mxCell>
        <mxCell id="ecf7t1vO1yYwUDiaF_wW-37" value="" style="endArrow=none;html=1;rounded=0;entryX=0.75;entryY=1;entryDx=0;entryDy=0;" edge="1" parent="ecf7t1vO1yYwUDiaF_wW-33" target="ecf7t1vO1yYwUDiaF_wW-34">
          <mxGeometry width="50" height="50" relative="1" as="geometry">
            <mxPoint x="90" y="80" as="sourcePoint" />
            <mxPoint x="30" y="80" as="targetPoint" />
            <Array as="points" />
          </mxGeometry>
        </mxCell>
        <mxCell id="ecf7t1vO1yYwUDiaF_wW-38" value="" style="group" vertex="1" connectable="0" parent="WIyWlLk6GJQsqaUBKTNV-1">
          <mxGeometry x="500" y="10" width="120" height="90" as="geometry" />
        </mxCell>
        <mxCell id="ecf7t1vO1yYwUDiaF_wW-39" value="IOS Application" style="rounded=0;whiteSpace=wrap;html=1;" vertex="1" parent="ecf7t1vO1yYwUDiaF_wW-38">
          <mxGeometry width="120" height="70" as="geometry" />
        </mxCell>
        <mxCell id="ecf7t1vO1yYwUDiaF_wW-40" value="" style="rounded=0;whiteSpace=wrap;html=1;" vertex="1" parent="ecf7t1vO1yYwUDiaF_wW-38">
          <mxGeometry y="80" width="120" height="10" as="geometry" />
        </mxCell>
        <mxCell id="ecf7t1vO1yYwUDiaF_wW-41" value="" style="endArrow=none;html=1;rounded=0;" edge="1" parent="ecf7t1vO1yYwUDiaF_wW-38">
          <mxGeometry width="50" height="50" relative="1" as="geometry">
            <mxPoint x="20" y="80" as="sourcePoint" />
            <mxPoint x="20" y="70" as="targetPoint" />
            <Array as="points" />
          </mxGeometry>
        </mxCell>
        <mxCell id="ecf7t1vO1yYwUDiaF_wW-42" value="" style="endArrow=none;html=1;rounded=0;entryX=0.75;entryY=1;entryDx=0;entryDy=0;" edge="1" parent="ecf7t1vO1yYwUDiaF_wW-38" target="ecf7t1vO1yYwUDiaF_wW-39">
          <mxGeometry width="50" height="50" relative="1" as="geometry">
            <mxPoint x="90" y="80" as="sourcePoint" />
            <mxPoint x="30" y="80" as="targetPoint" />
            <Array as="points" />
          </mxGeometry>
        </mxCell>
        <mxCell id="ecf7t1vO1yYwUDiaF_wW-43" value="" style="endArrow=classic;startArrow=classic;html=1;rounded=0;entryX=0.5;entryY=1;entryDx=0;entryDy=0;" edge="1" parent="WIyWlLk6GJQsqaUBKTNV-1" source="ecf7t1vO1yYwUDiaF_wW-23" target="ecf7t1vO1yYwUDiaF_wW-35">
          <mxGeometry width="50" height="50" relative="1" as="geometry">
            <mxPoint x="220" y="160" as="sourcePoint" />
            <mxPoint x="220" y="110" as="targetPoint" />
            <Array as="points">
              <mxPoint x="220" y="130" />
            </Array>
          </mxGeometry>
        </mxCell>
        <mxCell id="ecf7t1vO1yYwUDiaF_wW-44" value="" style="endArrow=classic;startArrow=classic;html=1;rounded=0;entryX=0.5;entryY=1;entryDx=0;entryDy=0;" edge="1" parent="WIyWlLk6GJQsqaUBKTNV-1" source="ecf7t1vO1yYwUDiaF_wW-23" target="ecf7t1vO1yYwUDiaF_wW-40">
          <mxGeometry width="50" height="50" relative="1" as="geometry">
            <mxPoint x="672.0317249214456" y="167.9458419002126" as="sourcePoint" />
            <mxPoint x="550" y="120" as="targetPoint" />
            <Array as="points">
              <mxPoint x="560" y="130" />
            </Array>
          </mxGeometry>
        </mxCell>
        <mxCell id="ecf7t1vO1yYwUDiaF_wW-47" value="" style="endArrow=classic;startArrow=classic;html=1;rounded=0;entryX=0.55;entryY=0.95;entryDx=0;entryDy=0;entryPerimeter=0;exitX=0.5;exitY=0;exitDx=0;exitDy=0;" edge="1" parent="WIyWlLk6GJQsqaUBKTNV-1" source="ecf7t1vO1yYwUDiaF_wW-49" target="ecf7t1vO1yYwUDiaF_wW-23">
          <mxGeometry width="50" height="50" relative="1" as="geometry">
            <mxPoint x="395" y="240" as="sourcePoint" />
            <mxPoint x="450" y="220" as="targetPoint" />
          </mxGeometry>
        </mxCell>
        <mxCell id="ecf7t1vO1yYwUDiaF_wW-49" value="Online Bookstore" style="whiteSpace=wrap;html=1;aspect=fixed;" vertex="1" parent="WIyWlLk6GJQsqaUBKTNV-1">
          <mxGeometry x="350" y="240" width="90" height="90" as="geometry" />
        </mxCell>
        <mxCell id="ecf7t1vO1yYwUDiaF_wW-50" value="" style="group" vertex="1" connectable="0" parent="WIyWlLk6GJQsqaUBKTNV-1">
          <mxGeometry x="720" y="80" width="120" height="90" as="geometry" />
        </mxCell>
        <mxCell id="ecf7t1vO1yYwUDiaF_wW-51" value="3rd Party E-Book Retailer Interface" style="rounded=0;whiteSpace=wrap;html=1;" vertex="1" parent="ecf7t1vO1yYwUDiaF_wW-50">
          <mxGeometry width="120" height="70" as="geometry" />
        </mxCell>
        <mxCell id="ecf7t1vO1yYwUDiaF_wW-52" value="" style="rounded=0;whiteSpace=wrap;html=1;" vertex="1" parent="ecf7t1vO1yYwUDiaF_wW-50">
          <mxGeometry y="80" width="120" height="10" as="geometry" />
        </mxCell>
        <mxCell id="ecf7t1vO1yYwUDiaF_wW-53" value="" style="endArrow=none;html=1;rounded=0;" edge="1" parent="ecf7t1vO1yYwUDiaF_wW-50">
          <mxGeometry width="50" height="50" relative="1" as="geometry">
            <mxPoint x="20" y="80" as="sourcePoint" />
            <mxPoint x="20" y="70" as="targetPoint" />
            <Array as="points" />
          </mxGeometry>
        </mxCell>
        <mxCell id="ecf7t1vO1yYwUDiaF_wW-54" value="" style="endArrow=none;html=1;rounded=0;entryX=0.75;entryY=1;entryDx=0;entryDy=0;" edge="1" parent="ecf7t1vO1yYwUDiaF_wW-50" target="ecf7t1vO1yYwUDiaF_wW-51">
          <mxGeometry width="50" height="50" relative="1" as="geometry">
            <mxPoint x="90" y="80" as="sourcePoint" />
            <mxPoint x="30" y="80" as="targetPoint" />
            <Array as="points" />
          </mxGeometry>
        </mxCell>
        <mxCell id="ecf7t1vO1yYwUDiaF_wW-55" value="" style="group" vertex="1" connectable="0" parent="WIyWlLk6GJQsqaUBKTNV-1">
          <mxGeometry x="335" y="580" width="120" height="90" as="geometry" />
        </mxCell>
        <mxCell id="ecf7t1vO1yYwUDiaF_wW-56" value="External Shipping Company" style="rounded=0;whiteSpace=wrap;html=1;" vertex="1" parent="ecf7t1vO1yYwUDiaF_wW-55">
          <mxGeometry width="120" height="70" as="geometry" />
        </mxCell>
        <mxCell id="ecf7t1vO1yYwUDiaF_wW-57" value="" style="rounded=0;whiteSpace=wrap;html=1;" vertex="1" parent="ecf7t1vO1yYwUDiaF_wW-55">
          <mxGeometry y="80" width="120" height="10" as="geometry" />
        </mxCell>
        <mxCell id="ecf7t1vO1yYwUDiaF_wW-58" value="" style="endArrow=none;html=1;rounded=0;" edge="1" parent="ecf7t1vO1yYwUDiaF_wW-55">
          <mxGeometry width="50" height="50" relative="1" as="geometry">
            <mxPoint x="20" y="80" as="sourcePoint" />
            <mxPoint x="20" y="70" as="targetPoint" />
            <Array as="points" />
          </mxGeometry>
        </mxCell>
        <mxCell id="ecf7t1vO1yYwUDiaF_wW-59" value="" style="endArrow=none;html=1;rounded=0;entryX=0.75;entryY=1;entryDx=0;entryDy=0;" edge="1" parent="ecf7t1vO1yYwUDiaF_wW-55" target="ecf7t1vO1yYwUDiaF_wW-56">
          <mxGeometry width="50" height="50" relative="1" as="geometry">
            <mxPoint x="90" y="80" as="sourcePoint" />
            <mxPoint x="30" y="80" as="targetPoint" />
            <Array as="points" />
          </mxGeometry>
        </mxCell>
        <mxCell id="ecf7t1vO1yYwUDiaF_wW-60" value="" style="group" vertex="1" connectable="0" parent="WIyWlLk6GJQsqaUBKTNV-1">
          <mxGeometry x="510" y="410" width="120" height="90" as="geometry" />
        </mxCell>
        <mxCell id="ecf7t1vO1yYwUDiaF_wW-61" value="Secure Payment System" style="rounded=0;whiteSpace=wrap;html=1;" vertex="1" parent="ecf7t1vO1yYwUDiaF_wW-60">
          <mxGeometry width="120" height="70" as="geometry" />
        </mxCell>
        <mxCell id="ecf7t1vO1yYwUDiaF_wW-62" value="" style="rounded=0;whiteSpace=wrap;html=1;" vertex="1" parent="ecf7t1vO1yYwUDiaF_wW-60">
          <mxGeometry y="80" width="120" height="10" as="geometry" />
        </mxCell>
        <mxCell id="ecf7t1vO1yYwUDiaF_wW-63" value="" style="endArrow=none;html=1;rounded=0;" edge="1" parent="ecf7t1vO1yYwUDiaF_wW-60">
          <mxGeometry width="50" height="50" relative="1" as="geometry">
            <mxPoint x="20" y="80" as="sourcePoint" />
            <mxPoint x="20" y="70" as="targetPoint" />
            <Array as="points" />
          </mxGeometry>
        </mxCell>
        <mxCell id="ecf7t1vO1yYwUDiaF_wW-64" value="" style="endArrow=none;html=1;rounded=0;entryX=0.75;entryY=1;entryDx=0;entryDy=0;" edge="1" parent="ecf7t1vO1yYwUDiaF_wW-60" target="ecf7t1vO1yYwUDiaF_wW-61">
          <mxGeometry width="50" height="50" relative="1" as="geometry">
            <mxPoint x="90" y="80" as="sourcePoint" />
            <mxPoint x="30" y="80" as="targetPoint" />
            <Array as="points" />
          </mxGeometry>
        </mxCell>
        <mxCell id="ecf7t1vO1yYwUDiaF_wW-70" value="Customer Support System" style="whiteSpace=wrap;html=1;aspect=fixed;" vertex="1" parent="WIyWlLk6GJQsqaUBKTNV-1">
          <mxGeometry x="-80" y="360" width="85" height="85" as="geometry" />
        </mxCell>
        <mxCell id="ecf7t1vO1yYwUDiaF_wW-72" value="" style="endArrow=classic;html=1;rounded=0;entryX=0;entryY=0.75;entryDx=0;entryDy=0;exitX=1;exitY=0.5;exitDx=0;exitDy=0;" edge="1" parent="WIyWlLk6GJQsqaUBKTNV-1" source="ecf7t1vO1yYwUDiaF_wW-70" target="ecf7t1vO1yYwUDiaF_wW-49">
          <mxGeometry width="50" height="50" relative="1" as="geometry">
            <mxPoint x="190" y="280" as="sourcePoint" />
            <mxPoint x="430" y="320" as="targetPoint" />
            <Array as="points">
              <mxPoint x="90" y="310" />
            </Array>
          </mxGeometry>
        </mxCell>
        <mxCell id="ecf7t1vO1yYwUDiaF_wW-73" value="" style="endArrow=classic;startArrow=classic;html=1;rounded=0;exitX=0.5;exitY=0;exitDx=0;exitDy=0;entryX=0.25;entryY=1;entryDx=0;entryDy=0;" edge="1" parent="WIyWlLk6GJQsqaUBKTNV-1" source="ecf7t1vO1yYwUDiaF_wW-70" target="ecf7t1vO1yYwUDiaF_wW-30">
          <mxGeometry width="50" height="50" relative="1" as="geometry">
            <mxPoint x="380" y="370" as="sourcePoint" />
            <mxPoint x="-20" y="210" as="targetPoint" />
          </mxGeometry>
        </mxCell>
        <mxCell id="ecf7t1vO1yYwUDiaF_wW-75" value="Order Processor" style="rounded=0;whiteSpace=wrap;html=1;" vertex="1" parent="WIyWlLk6GJQsqaUBKTNV-1">
          <mxGeometry x="335" y="410" width="120" height="60" as="geometry" />
        </mxCell>
        <mxCell id="ecf7t1vO1yYwUDiaF_wW-76" value="" style="endArrow=classic;html=1;rounded=0;exitX=0.5;exitY=1;exitDx=0;exitDy=0;entryX=0.5;entryY=0;entryDx=0;entryDy=0;" edge="1" parent="WIyWlLk6GJQsqaUBKTNV-1" source="ecf7t1vO1yYwUDiaF_wW-49" target="ecf7t1vO1yYwUDiaF_wW-75">
          <mxGeometry width="50" height="50" relative="1" as="geometry">
            <mxPoint x="380" y="520" as="sourcePoint" />
            <mxPoint x="430" y="470" as="targetPoint" />
          </mxGeometry>
        </mxCell>
        <mxCell id="ecf7t1vO1yYwUDiaF_wW-77" value="" style="endArrow=classic;startArrow=classic;html=1;rounded=0;exitX=0;exitY=0.5;exitDx=0;exitDy=0;entryX=1;entryY=0.5;entryDx=0;entryDy=0;" edge="1" parent="WIyWlLk6GJQsqaUBKTNV-1" source="ecf7t1vO1yYwUDiaF_wW-61" target="ecf7t1vO1yYwUDiaF_wW-75">
          <mxGeometry width="50" height="50" relative="1" as="geometry">
            <mxPoint x="380" y="520" as="sourcePoint" />
            <mxPoint x="430" y="470" as="targetPoint" />
          </mxGeometry>
        </mxCell>
        <mxCell id="ecf7t1vO1yYwUDiaF_wW-78" value="" style="endArrow=classic;html=1;rounded=0;entryX=0.5;entryY=0;entryDx=0;entryDy=0;exitX=0.5;exitY=1;exitDx=0;exitDy=0;" edge="1" parent="WIyWlLk6GJQsqaUBKTNV-1" source="ecf7t1vO1yYwUDiaF_wW-75" target="ecf7t1vO1yYwUDiaF_wW-56">
          <mxGeometry width="50" height="50" relative="1" as="geometry">
            <mxPoint x="380" y="520" as="sourcePoint" />
            <mxPoint x="430" y="470" as="targetPoint" />
          </mxGeometry>
        </mxCell>
        <mxCell id="ecf7t1vO1yYwUDiaF_wW-79" value="Book Store Catalog System" style="rounded=0;whiteSpace=wrap;html=1;" vertex="1" parent="WIyWlLk6GJQsqaUBKTNV-1">
          <mxGeometry x="540" y="200" width="120" height="60" as="geometry" />
        </mxCell>
        <mxCell id="ecf7t1vO1yYwUDiaF_wW-80" value="" style="endArrow=classic;html=1;rounded=0;exitX=0;exitY=0.5;exitDx=0;exitDy=0;entryX=1;entryY=0.25;entryDx=0;entryDy=0;" edge="1" parent="WIyWlLk6GJQsqaUBKTNV-1" source="ecf7t1vO1yYwUDiaF_wW-79" target="ecf7t1vO1yYwUDiaF_wW-49">
          <mxGeometry width="50" height="50" relative="1" as="geometry">
            <mxPoint x="380" y="340" as="sourcePoint" />
            <mxPoint x="430" y="290" as="targetPoint" />
          </mxGeometry>
        </mxCell>
        <mxCell id="ecf7t1vO1yYwUDiaF_wW-81" value="" style="endArrow=classic;startArrow=classic;html=1;rounded=0;exitX=0.5;exitY=0;exitDx=0;exitDy=0;" edge="1" parent="WIyWlLk6GJQsqaUBKTNV-1" source="ecf7t1vO1yYwUDiaF_wW-18" target="ecf7t1vO1yYwUDiaF_wW-79">
          <mxGeometry width="50" height="50" relative="1" as="geometry">
            <mxPoint x="800" y="320" as="sourcePoint" />
            <mxPoint x="850" y="270" as="targetPoint" />
            <Array as="points">
              <mxPoint x="780" y="230" />
            </Array>
          </mxGeometry>
        </mxCell>
        <mxCell id="ecf7t1vO1yYwUDiaF_wW-82" value="" style="endArrow=classic;startArrow=classic;html=1;rounded=0;entryX=0.5;entryY=1;entryDx=0;entryDy=0;exitX=1;exitY=0.25;exitDx=0;exitDy=0;" edge="1" parent="WIyWlLk6GJQsqaUBKTNV-1" source="ecf7t1vO1yYwUDiaF_wW-79" target="ecf7t1vO1yYwUDiaF_wW-52">
          <mxGeometry width="50" height="50" relative="1" as="geometry">
            <mxPoint x="720" y="242.5" as="sourcePoint" />
            <mxPoint x="770" y="170" as="targetPoint" />
            <Array as="points">
              <mxPoint x="780" y="215" />
            </Array>
          </mxGeometry>
        </mxCell>
        <mxCell id="ecf7t1vO1yYwUDiaF_wW-83" value="Search and Filter Interface" style="rounded=0;whiteSpace=wrap;html=1;" vertex="1" parent="WIyWlLk6GJQsqaUBKTNV-1">
          <mxGeometry x="540" y="290" width="120" height="60" as="geometry" />
        </mxCell>
        <mxCell id="ecf7t1vO1yYwUDiaF_wW-87" value="" style="endArrow=classic;startArrow=classic;html=1;rounded=0;exitX=1;exitY=0.5;exitDx=0;exitDy=0;entryX=0;entryY=0.5;entryDx=0;entryDy=0;" edge="1" parent="WIyWlLk6GJQsqaUBKTNV-1" source="ecf7t1vO1yYwUDiaF_wW-49" target="ecf7t1vO1yYwUDiaF_wW-83">
          <mxGeometry width="50" height="50" relative="1" as="geometry">
            <mxPoint x="490" y="370" as="sourcePoint" />
            <mxPoint x="540" y="320" as="targetPoint" />
          </mxGeometry>
        </mxCell>
        <mxCell id="ecf7t1vO1yYwUDiaF_wW-88" value="" style="endArrow=classic;html=1;rounded=0;exitX=0.5;exitY=1;exitDx=0;exitDy=0;entryX=0.5;entryY=0;entryDx=0;entryDy=0;" edge="1" parent="WIyWlLk6GJQsqaUBKTNV-1" source="ecf7t1vO1yYwUDiaF_wW-79" target="ecf7t1vO1yYwUDiaF_wW-83">
          <mxGeometry width="50" height="50" relative="1" as="geometry">
            <mxPoint x="460" y="390" as="sourcePoint" />
            <mxPoint x="510" y="340" as="targetPoint" />
          </mxGeometry>
        </mxCell>
        <mxCell id="ecf7t1vO1yYwUDiaF_wW-90" style="edgeStyle=orthogonalEdgeStyle;rounded=0;orthogonalLoop=1;jettySize=auto;html=1;" edge="1" parent="WIyWlLk6GJQsqaUBKTNV-1" source="ecf7t1vO1yYwUDiaF_wW-89">
          <mxGeometry relative="1" as="geometry">
            <mxPoint x="350" y="270" as="targetPoint" />
          </mxGeometry>
        </mxCell>
        <mxCell id="ecf7t1vO1yYwUDiaF_wW-89" value="Recommendation Engine&amp;nbsp;" style="rounded=0;whiteSpace=wrap;html=1;" vertex="1" parent="WIyWlLk6GJQsqaUBKTNV-1">
          <mxGeometry x="-10" y="240" width="120" height="60" as="geometry" />
        </mxCell>
        <mxCell id="ecf7t1vO1yYwUDiaF_wW-92" value="" style="endArrow=classic;startArrow=classic;html=1;rounded=0;exitX=0.5;exitY=0;exitDx=0;exitDy=0;entryX=0.75;entryY=1;entryDx=0;entryDy=0;" edge="1" parent="WIyWlLk6GJQsqaUBKTNV-1" source="ecf7t1vO1yYwUDiaF_wW-89" target="ecf7t1vO1yYwUDiaF_wW-30">
          <mxGeometry width="50" height="50" relative="1" as="geometry">
            <mxPoint x="100" y="240" as="sourcePoint" />
            <mxPoint x="150" y="190" as="targetPoint" />
          </mxGeometry>
        </mxCell>
        <mxCell id="ecf7t1vO1yYwUDiaF_wW-94" style="edgeStyle=orthogonalEdgeStyle;rounded=0;orthogonalLoop=1;jettySize=auto;html=1;exitX=0.108;exitY=0.525;exitDx=0;exitDy=0;exitPerimeter=0;" edge="1" parent="WIyWlLk6GJQsqaUBKTNV-1" source="ecf7t1vO1yYwUDiaF_wW-93">
          <mxGeometry relative="1" as="geometry">
            <mxPoint x="-40" y="450" as="targetPoint" />
          </mxGeometry>
        </mxCell>
        <mxCell id="ecf7t1vO1yYwUDiaF_wW-93" value="Message Bus" style="ellipse;shape=cloud;whiteSpace=wrap;html=1;" vertex="1" parent="WIyWlLk6GJQsqaUBKTNV-1">
          <mxGeometry x="160" y="590" width="120" height="80" as="geometry" />
        </mxCell>
        <mxCell id="ecf7t1vO1yYwUDiaF_wW-97" value="" style="endArrow=classic;html=1;rounded=0;exitX=0.25;exitY=1;exitDx=0;exitDy=0;entryX=0.583;entryY=0.125;entryDx=0;entryDy=0;entryPerimeter=0;" edge="1" parent="WIyWlLk6GJQsqaUBKTNV-1" source="ecf7t1vO1yYwUDiaF_wW-75" target="ecf7t1vO1yYwUDiaF_wW-93">
          <mxGeometry width="50" height="50" relative="1" as="geometry">
            <mxPoint x="240" y="560" as="sourcePoint" />
            <mxPoint x="290" y="510" as="targetPoint" />
          </mxGeometry>
        </mxCell>
        <mxCell id="ecf7t1vO1yYwUDiaF_wW-98" value="Order Fulfilment" style="rounded=1;whiteSpace=wrap;html=1;" vertex="1" parent="WIyWlLk6GJQsqaUBKTNV-1">
          <mxGeometry x="160" y="740" width="120" height="60" as="geometry" />
        </mxCell>
        <mxCell id="ecf7t1vO1yYwUDiaF_wW-99" value="" style="endArrow=classic;startArrow=classic;html=1;rounded=0;exitX=0.5;exitY=0;exitDx=0;exitDy=0;entryX=0.55;entryY=0.95;entryDx=0;entryDy=0;entryPerimeter=0;" edge="1" parent="WIyWlLk6GJQsqaUBKTNV-1" source="ecf7t1vO1yYwUDiaF_wW-98" target="ecf7t1vO1yYwUDiaF_wW-93">
          <mxGeometry width="50" height="50" relative="1" as="geometry">
            <mxPoint x="230" y="730" as="sourcePoint" />
            <mxPoint x="280" y="680" as="targetPoint" />
          </mxGeometry>
        </mxCell>
        <mxCell id="ecf7t1vO1yYwUDiaF_wW-100" style="edgeStyle=orthogonalEdgeStyle;rounded=0;orthogonalLoop=1;jettySize=auto;html=1;entryX=0.875;entryY=0.5;entryDx=0;entryDy=0;entryPerimeter=0;" edge="1" parent="WIyWlLk6GJQsqaUBKTNV-1" source="ecf7t1vO1yYwUDiaF_wW-56" target="ecf7t1vO1yYwUDiaF_wW-93">
          <mxGeometry relative="1" as="geometry" />
        </mxCell>
      </root>
    </mxGraphModel>
  </diagram>
</mxfile>
